<svg width="16" height="16" viewBox="0 0 16 16" fill="none" xmlns="http://www.w3.org/2000/svg">
<path d="M8.00033 15.069C12.0437 15.069 15.3337 11.7794 15.3337 7.73568C15.3337 7.03773 15.2362 6.34993 15.0433 5.69123C14.9483 5.36732 14.6101 5.18127 14.2853 5.27631C13.961 5.37105 13.7756 5.71048 13.8703 6.03438C14.0301 6.58164 14.1114 7.15426 14.1114 7.73568C14.1114 11.1053 11.3699 13.8468 8.00033 13.8468C4.63071 13.8468 1.88921 11.1053 1.88921 7.73568C1.88921 4.36606 4.63071 1.62457 8.00033 1.62457C9.22493 1.62457 10.4031 1.98264 11.4075 2.65984C11.6871 2.84858 12.0673 2.77443 12.2557 2.49483C12.4443 2.21494 12.3708 1.83508 12.0909 1.6465C10.8839 0.832628 9.46947 0.402344 8.00033 0.402344C3.95694 0.402344 0.666992 3.69199 0.666992 7.73568C0.666992 11.7794 3.95694 15.069 8.00033 15.069Z" fill="#FF3F3A"/>
<path d="M14.8622 1.2642L8.0002 8.12585L5.80489 5.93087C5.54447 5.67061 5.1226 5.67061 4.86218 5.93087C4.60193 6.19128 4.60193 6.61316 4.86218 6.87358L7.52885 9.54024C7.65922 9.67061 7.82947 9.73555 8.0002 9.73555C8.17094 9.73555 8.34119 9.67061 8.47156 9.54024L15.8049 2.20691C16.0651 1.94649 16.0651 1.52462 15.8049 1.2642C15.5445 1.00395 15.1226 1.00395 14.8622 1.2642Z" fill="#FF3F3A"/>
</svg>
