<svg width="156" height="111" viewBox="0 0 156 111" fill="none" xmlns="http://www.w3.org/2000/svg">
<g opacity="0.3">
<path d="M93.8067 75.2212L103.465 84.8799L77.782 110.563L52.0986 84.8799L61.6842 75.2943L77.7089 91.319L93.8067 75.2212Z" fill="white"/>
<path d="M93.8057 40.5386L103.391 50.1241L77.7079 75.8075L52.0977 50.1973L61.7564 40.5386L77.7811 56.5632L93.8057 40.5386Z" fill="white"/>
<path d="M93.7329 5.78128L103.392 15.44C103.392 15.44 91.9255 41.03 77.7814 41.0502C63.5969 41.0705 52.098 15.3668 52.098 15.3668L61.6836 5.78128L77.7082 21.806L93.7329 5.78128Z" fill="white"/>
<path d="M93.8062 -28.9761L103.465 -19.3174L77.7815 6.36601L52.0981 -19.3174L61.7569 -28.9761L77.7815 -12.9514L93.8062 -28.9761Z" fill="white"/>
</g>
</svg>
