<svg width="86" height="27" viewBox="0 0 86 27" fill="none" xmlns="http://www.w3.org/2000/svg">
<path d="M45.3987 6.80854C45.3987 7.77029 44.6283 8.54471 43.6723 8.54471C42.7162 8.54471 41.9464 7.77029 41.9464 6.80854C41.9464 5.8468 42.69 5.07238 43.6723 5.07238C44.6554 5.09907 45.3987 5.87375 45.3987 6.80854ZM38.2819 10.3081V10.7356C38.2819 10.7356 37.4591 9.66656 35.7064 9.66656C32.8123 9.66656 30.5548 11.8839 30.5548 14.9556C30.5548 18.001 32.7858 20.2447 35.7064 20.2447C37.4856 20.2447 38.2819 19.1495 38.2819 19.1495V19.6035C38.2819 19.8172 38.4416 19.977 38.6538 19.977H40.8044V9.93288H38.6538C38.4416 9.93369 38.2819 10.121 38.2819 10.3081ZM38.2819 16.7454C37.884 17.3333 37.0871 17.8409 36.1314 17.8409C34.432 17.8409 33.1306 16.7724 33.1306 14.9556C33.1306 13.1391 34.432 12.0707 36.1314 12.0707C37.0609 12.0707 37.9105 12.6049 38.2819 13.1658V16.7454ZM42.3979 9.93368H44.9469V19.9778H42.3979V9.93368ZM80.4764 9.6663C78.7238 9.6663 77.9004 10.7353 77.9004 10.7353V5.09907H75.3514V19.9778H77.5024C77.7149 19.9778 77.8738 19.7908 77.8738 19.6037V19.1498C77.8738 19.1498 78.6972 20.245 80.4494 20.245C83.344 20.245 85.6009 18.0018 85.6009 14.9564C85.6009 11.9111 83.344 9.6663 80.4764 9.6663ZM80.0515 17.8139C79.0686 17.8139 78.2988 17.3069 77.9004 16.7187V13.1391C78.2988 12.6049 79.1485 12.044 80.0515 12.044C81.7508 12.044 83.0519 13.1125 83.0519 14.9289C83.0519 16.7454 81.7511 17.8139 80.0515 17.8139ZM74.0239 14.0211V20.0045H71.4744V14.3146C71.4744 12.6588 70.9433 11.9906 69.5103 11.9906C68.7405 11.9906 67.9436 12.3914 67.4383 12.9793V19.9781H64.8898V9.93395H66.9072C67.1197 9.93395 67.2791 10.121 67.2791 10.3081V10.7356C68.0227 9.96064 69.005 9.66656 69.9873 9.66656C71.1028 9.66656 72.0323 9.98759 72.7758 10.6286C73.6783 11.3766 74.0239 12.3381 74.0239 14.0211ZM58.7018 9.6663C56.9497 9.6663 56.1263 10.7353 56.1263 10.7353V5.09907H53.5773V19.9778H55.7278C55.9403 19.9778 56.0997 19.7908 56.0997 19.6037V19.1498C56.0997 19.1498 56.9231 20.245 58.6753 20.245C61.5699 20.245 63.8269 18.0018 63.8269 14.9564C63.8534 11.9108 61.5965 9.6663 58.7018 9.6663ZM58.2768 17.8139C57.2945 17.8139 56.5247 17.3069 56.1263 16.7187V13.1391C56.5247 12.6049 57.3744 12.044 58.2768 12.044C59.9767 12.044 61.2776 13.1125 61.2776 14.9289C61.2776 16.7454 59.9767 17.8139 58.2768 17.8139ZM51.3731 9.6663C52.1429 9.6663 52.5414 9.80025 52.5414 9.80025V12.1774C52.5414 12.1774 50.4171 11.4561 49.0897 12.979V20.0043H46.5401V9.93368H48.6912C48.9037 9.93368 49.0626 10.1208 49.0626 10.3078V10.7353C49.5411 10.1741 50.5768 9.6663 51.3731 9.6663ZM24.8992 19.0695C24.7666 18.749 24.6337 18.4018 24.501 18.1077C24.2883 17.6271 24.0758 17.1727 23.8904 16.7454L23.8638 16.7187C22.0313 12.7116 20.0667 8.65171 17.9952 4.64515L17.9156 4.4845C17.6978 4.06886 17.4854 3.65031 17.2787 3.22895C17.0129 2.74781 16.7476 2.24078 16.3227 1.75964C15.473 0.691153 14.2514 0.103271 12.9505 0.103271C11.6226 0.103271 10.4278 0.691156 9.55187 1.70601C9.15343 2.18661 8.8611 2.69417 8.59583 3.17531C8.38859 3.59641 8.17626 4.01496 7.95891 4.43086L7.87906 4.59151C5.83434 8.59807 3.84294 12.6583 2.0107 16.6651L1.98392 16.7182C1.79823 17.1462 1.58547 17.6002 1.37299 18.0805C1.24036 18.3746 1.10772 18.6951 0.975083 19.0422C0.629698 20.0304 0.523319 20.9655 0.656486 21.9275C0.94855 23.931 2.27597 25.6133 4.10848 26.3618C4.79898 26.6559 5.51601 26.7893 6.2593 26.7893C6.47179 26.7893 6.73707 26.7626 6.94982 26.7357C7.82628 26.6289 8.72899 26.3354 9.60545 25.8278C10.6941 25.2133 11.7298 24.3321 12.898 23.0499C14.0663 24.3321 15.1284 25.2133 16.1906 25.8278C17.0673 26.3354 17.9698 26.6289 18.8459 26.7357C19.0584 26.7629 19.3242 26.7893 19.5367 26.7893C20.2803 26.7893 21.0236 26.6559 21.6873 26.3618C23.5463 25.6133 24.8472 23.9043 25.1395 21.9275C25.3504 20.9927 25.2443 20.0582 24.8992 19.0695ZM12.9237 20.4584C11.4897 18.642 10.5602 16.9325 10.2418 15.4904C10.1092 14.8758 10.0824 14.3416 10.1623 13.8607C10.215 13.4332 10.3747 13.0591 10.5872 12.7386C11.0918 12.0178 11.9414 11.5634 12.924 11.5634C13.9068 11.5634 14.783 11.9909 15.2611 12.7386C15.4735 13.0591 15.6327 13.4335 15.6863 13.8607C15.7656 14.3419 15.7391 14.9025 15.6064 15.4904C15.2868 16.9058 14.3573 18.6155 12.9237 20.4584ZM23.5182 21.714C23.3325 23.103 22.403 24.3054 21.1021 24.8397C20.4649 25.1065 19.7741 25.1868 19.0842 25.1065C18.4205 25.0262 17.7562 24.8125 17.0662 24.4122C16.1102 23.8774 15.1544 23.0499 14.039 21.8207C15.7913 19.6573 16.8535 17.6802 17.2519 15.9176C17.4379 15.0893 17.4647 14.3416 17.3846 13.6467C17.2787 12.979 17.0394 12.3645 16.6678 11.8302C15.8441 10.6278 14.4631 9.93368 12.9235 9.93368C11.3838 9.93368 10.0028 10.655 9.17969 11.8302C8.80804 12.3645 8.56877 12.979 8.46266 13.6467C8.35655 14.3416 8.38281 15.116 8.59529 15.9176C8.99347 17.6802 10.0822 19.6838 11.808 21.8474C10.7193 23.0763 9.73676 23.9046 8.78072 24.4389C8.09022 24.8397 7.42677 25.0534 6.76306 25.1332C6.0463 25.2135 5.35553 25.1065 4.74487 24.8664C3.44397 24.3321 2.51446 23.1297 2.32877 21.7407C2.24919 21.073 2.30197 20.4053 2.56778 19.6573C2.64709 19.39 2.78026 19.1231 2.9129 18.8026C3.09885 18.3751 3.3108 17.9207 3.52355 17.4667L3.55035 17.4136C5.38232 13.4332 7.34719 9.37302 9.39191 5.41983L9.47149 5.25918C9.68424 4.8589 9.89673 4.4314 10.1089 4.03058C10.3214 3.60308 10.5602 3.20226 10.8525 2.85482C11.4101 2.21436 12.1534 1.86665 12.9768 1.86665C13.8002 1.86665 14.5435 2.21436 15.1011 2.85482C15.3934 3.20306 15.6322 3.60388 15.8447 4.03058C16.0574 4.4314 16.2699 4.8589 16.4818 5.25918L16.5617 5.41983C18.5752 9.38944 20.514 13.397 22.377 17.4403V17.467C22.5897 17.895 22.7754 18.3754 22.9879 18.8034C23.1206 19.1234 23.2535 19.3902 23.333 19.6576C23.545 20.3514 23.6246 21.0196 23.5182 21.714Z" fill="#718087"/>
</svg>
