<svg width="71" height="24" viewBox="0 0 71 24" fill="none" xmlns="http://www.w3.org/2000/svg">
<path d="M14.6815 11.9484C15.8617 12.0432 16.8531 12.5174 17.7028 13.4185C18.5525 14.3195 18.9774 15.5525 18.9774 17.1174C18.9774 19.0143 18.3637 20.5793 17.0891 21.7174C15.8145 22.8556 14.0206 23.4246 11.613 23.4246H0V0.946289H11.5658C13.5957 0.946289 15.248 1.51536 16.4754 2.60608C17.7028 3.74423 18.3165 5.21433 18.3165 7.06381C18.3165 8.4865 17.9388 9.57722 17.1363 10.4308C16.3338 11.2844 15.5312 11.7112 14.6343 11.8061L14.6815 11.9484ZM5.52327 10.2411H10.3384C11.141 10.2411 11.8019 10.004 12.3211 9.52979C12.7932 9.05557 13.0765 8.4865 13.0765 7.68031C13.0765 6.96897 12.8404 6.44732 12.3684 6.02052C11.8963 5.59371 11.2826 5.40402 10.5745 5.40402H5.52327V10.2411ZM10.6217 18.9669C11.4714 18.9669 12.1795 18.7298 12.6516 18.303C13.1237 17.8762 13.3597 17.2597 13.3597 16.4535C13.3597 15.6947 13.1237 15.1257 12.6044 14.6989C12.1323 14.2721 11.4714 14.0349 10.7161 14.0349H5.52327V18.9669H10.6217ZM38.0964 23.4246H32.762V21.8123C31.4402 23.235 29.6935 23.9463 27.6164 23.9463C25.6336 23.9463 24.0758 23.2824 22.8956 22.002C21.7154 20.7215 21.1017 19.0143 21.1017 16.9277V6.58959H26.389V15.7896C26.389 16.7855 26.6722 17.5917 27.1915 18.2081C27.7108 18.8246 28.4189 19.1092 29.2686 19.1092C30.3544 19.1092 31.2041 18.7298 31.8178 17.971C32.4315 17.2123 32.7148 16.0267 32.7148 14.4143V6.58959H38.0492L38.0964 23.4246ZM54.5718 23.4246H40.4096V22.4288L47.0658 10.8576H40.5984V6.58959H54.4774V7.58546L47.8211 19.1566H54.5246V23.4246H54.5718ZM71 23.4246H56.885V22.4288L63.494 10.8576H57.0266V6.58959H70.9056V7.58546L64.2493 19.1566H70.9528L71 23.4246Z" fill="#718087"/>
</svg>
