<svg width="98" height="19" viewBox="0 0 98 19" fill="none" xmlns="http://www.w3.org/2000/svg">
<path d="M32.919 0.395211V7.58099H22.9079V0.395211L19.2617 0.391968V18.5104H22.9079V10.7266H32.919V18.5104H36.5711V0.395211H32.919Z" fill="#718087"/>
<path d="M81.4258 0.395874V18.5067H97.4224L95.3964 15.3183H85.0823V10.7273H95.0695V7.65633H85.0823V3.50959H95.3791L97.364 0.395874H81.4258Z" fill="#718087"/>
<path d="M5.70849 0.390991C1.91565 0.390991 0 2.69679 0 6.05185V12.815C0 16.6977 2.46868 18.5105 5.68954 18.5105L17.1292 18.5094L15.0085 15.1976H6.39627C4.56667 15.1976 3.76958 14.5364 3.76958 12.4887V6.35273C3.76958 4.37324 4.4406 3.60103 6.44497 3.60103H15.0983L17.1346 0.390991H5.70849Z" fill="#718087"/>
<path d="M65.4234 0.386529C63.2329 0.386529 60.9877 1.70312 60.9877 5.08958V5.95972C60.9877 9.49011 63.1479 10.837 65.3092 10.8462H72.8955C73.6834 10.8462 74.3235 10.9772 74.3235 12.3089L74.3224 13.8474C74.3024 15.0438 73.7055 15.3176 72.8684 15.3176H62.8882L60.8438 18.506H73.1033C76.0595 18.506 78.0666 17.0352 78.0666 13.6379V12.3895C78.0666 9.10483 76.2018 7.55283 73.3105 7.55283H66.0668C65.2638 7.55283 64.7042 7.33367 64.7042 6.14425V4.89151C64.7042 3.8785 65.0879 3.5089 66.0235 3.5089L75.5281 3.50512L77.5146 0.382202L65.4234 0.386529Z" fill="#718087"/>
<path d="M47.1648 0.395874L38.5742 18.51H42.6344L44.3076 14.7691H53.6428L55.3106 18.51H59.3886L50.778 0.395874H47.1648ZM48.9663 4.15679L52.2672 11.6857H45.6864L48.9663 4.15679Z" fill="#718087"/>
</svg>
