<svg width="97" height="24" viewBox="0 0 97 24" fill="none" xmlns="http://www.w3.org/2000/svg">
<path opacity="0.8" d="M21.9845 16.3094V21.2679C20.182 22.853 15.8749 23.7959 12.6682 23.7959C9.46558 23.7959 0.600952 21.8125 0.600952 12.493C0.600952 3.17354 9.03857 1.16576 12.4424 1.16576C15.8503 1.16576 19.4799 1.78354 21.5821 3.17354V7.53456C21.5821 8.07917 20.8307 8.0304 20.8307 7.53456C20.7814 6.79078 18.7778 2.33222 13.7686 2.42977C8.3611 2.5395 4.70685 6.74608 4.70685 12.2939C4.70685 17.8417 8.25845 22.6051 13.6208 22.4547C15.3617 22.4059 17.1765 21.8613 18.0551 21.1378L18.0757 16.3094C18.0757 14.9235 17.2257 14.4276 16.3758 14.4276C15.8215 14.4276 15.8215 13.6351 16.3758 13.6351H23.6843C24.2345 13.6351 24.2345 14.4764 23.6843 14.4276C22.8385 14.4276 21.9845 14.9235 21.9845 16.3094ZM71.2593 7.53862C71.2593 8.08324 70.7092 8.03447 70.7092 7.53862C70.6558 6.79485 68.6562 2.18591 63.647 2.28752C58.2395 2.39319 54.5812 6.75014 54.5812 12.2979C54.5812 17.8457 58.0876 22.7554 63.4458 22.6091C68.804 22.4587 71.3579 17.2076 71.5591 16.5126C71.7603 15.8176 72.1093 15.9193 72.1093 16.4639V20.5282C69.9085 22.1133 65.7492 23.8 62.5466 23.8C59.344 23.8 50.4794 21.8166 50.4794 12.4971C50.4794 3.17354 58.8924 0.946289 62.2962 0.946289C65.7041 0.946289 69.1571 1.7876 71.2635 3.17354V7.53862H71.2593ZM48.5743 1.49091C49.3749 1.49091 49.3749 2.23468 48.5743 2.23468C47.7243 2.23468 46.8744 2.73053 46.8744 4.11646L46.7759 14.9479C46.7759 20.134 42.5263 23.9463 37.283 23.9463C32.0398 23.9463 27.9462 20.134 27.9462 14.9479V4.11646C27.9462 2.72646 27.0922 2.23468 26.2423 2.23468C25.4416 2.23468 25.4416 1.49091 26.2423 1.49091H33.6534C34.4541 1.49091 34.4541 2.23468 33.6534 2.23468C32.7994 2.23468 31.9495 2.73053 31.9495 4.11646L31.9413 16.2119C31.9413 19.8698 34.9632 22.8367 38.6585 22.8367C42.3538 22.8367 45.3511 19.126 45.3511 15.4722L45.1705 4.11646C45.1705 2.72646 44.3205 2.23468 43.4665 2.23468C42.67 2.23468 42.67 1.49091 43.4665 1.49091H48.5743ZM95.7469 7.53862C95.7469 8.08324 95.1967 8.03447 95.1967 7.53862C95.1475 6.79485 93.1438 2.18591 88.1346 2.28752C82.7271 2.39319 79.0688 6.75014 79.0688 12.2979C79.0688 17.8457 82.5752 22.7554 87.9334 22.6091C93.2916 22.4628 95.8455 17.2076 96.0467 16.5126C96.2478 15.8176 96.601 15.9193 96.601 16.4639V20.5282C94.3961 22.1133 90.2409 23.8 87.0342 23.8C83.8316 23.8 74.967 21.8166 74.967 12.4971C74.967 3.17354 83.38 0.946289 86.7878 0.946289C90.1916 0.946289 93.6488 1.7876 95.751 3.17354V7.53862H95.7469Z" fill="#718087"/>
</svg>
