<svg width="95" height="21" viewBox="0 0 95 21" fill="none" xmlns="http://www.w3.org/2000/svg">
<path d="M94.6005 9.48935V7.83295H92.5438V5.25786L92.4747 5.27925L90.505 5.88191V7.83295H87.4556V6.74532C87.4263 6.33355 87.5456 5.92491 87.7917 5.59351C87.9103 5.46337 88.0564 5.36129 88.2194 5.29467C88.3824 5.22806 88.5582 5.19858 88.734 5.20838C89.0429 5.2125 89.3475 5.28176 89.6277 5.41164L89.7035 5.44552V3.70264L89.6679 3.68972C89.2981 3.57583 88.912 3.5243 88.5254 3.53727C87.9611 3.52837 87.4038 3.66223 86.9051 3.92641C86.4367 4.17847 86.0507 4.56007 85.7934 5.02562C85.526 5.5205 85.3904 6.07589 85.3998 6.63834V7.83295H83.9676V9.48935H85.3998V16.4666H87.4556V9.48935H90.505V13.9219C90.505 15.7494 91.3662 16.6735 93.0654 16.6735C93.3589 16.6718 93.6514 16.6394 93.9381 16.5767C94.1583 16.5393 94.3722 16.4715 94.5738 16.3753L94.601 16.3592V14.6877L94.5172 14.7429C94.3896 14.8237 94.2502 14.8838 94.1039 14.9212C93.9722 14.962 93.8357 14.9852 93.6979 14.9903C93.5376 15.0043 93.3762 14.9831 93.225 14.928C93.0739 14.8729 92.9366 14.7854 92.8229 14.6716C92.6064 14.3454 92.508 13.9551 92.5438 13.5653V9.48935H94.6005ZM79.3755 14.9917C79.0474 15.0088 78.7197 14.9516 78.4169 14.8243C78.114 14.697 77.8438 14.503 77.6264 14.2566C77.1755 13.6622 76.9526 12.9259 76.9979 12.1812C76.9501 11.4192 77.1727 10.6647 77.6264 10.0505C77.8392 9.8024 78.1059 9.60614 78.4061 9.47674C78.7063 9.34735 79.0321 9.28823 79.3586 9.30391C79.6752 9.28871 79.9912 9.34491 80.2832 9.46836C80.5752 9.59182 80.8356 9.77936 81.0453 10.0171C81.4957 10.6258 81.7141 11.3751 81.6613 12.1304C81.7133 12.8884 81.5093 13.6419 81.0819 14.27C80.8734 14.5149 80.6105 14.7076 80.3142 14.8328C80.0179 14.9579 79.6965 15.0129 79.3755 14.9917ZM79.4669 7.62166C78.8518 7.58783 78.2362 7.68041 77.6582 7.8937C77.0803 8.10698 76.5521 8.43643 76.1064 8.86173C75.6895 9.31702 75.3674 9.85079 75.1589 10.4319C74.9504 11.013 74.8598 11.6298 74.8922 12.2463C74.8627 12.8369 74.9524 13.4274 75.156 13.9825C75.3597 14.5377 75.673 15.0461 76.0774 15.4775C76.4988 15.8822 76.9982 16.1967 77.5452 16.4019C78.0921 16.6072 78.6752 16.6988 79.2587 16.6712C79.8649 16.701 80.4707 16.6047 81.0377 16.3883C81.6047 16.172 82.1206 15.8403 82.5528 15.4142C82.9663 14.9634 83.2865 14.4352 83.4949 13.86C83.7033 13.2849 83.7958 12.6742 83.767 12.0631C83.8318 10.8706 83.4224 9.70093 82.6282 8.80914C82.2122 8.40321 81.7163 8.08816 81.1721 7.88397C80.628 7.67978 80.0473 7.59091 79.4669 7.623V7.62166ZM71.5772 7.623C70.7223 7.58683 69.881 7.84677 69.1955 8.35893C68.9008 8.5827 68.6631 8.87297 68.5018 9.20606C68.3405 9.53915 68.2602 9.90564 68.2675 10.2756C68.2603 10.6422 68.3285 11.0063 68.4676 11.3454C68.6058 11.6579 68.8163 11.9329 69.0819 12.1478C69.4647 12.4356 69.8845 12.6707 70.33 12.8467C70.6861 12.9866 71.0332 13.1482 71.3695 13.3308C71.5464 13.4231 71.7022 13.551 71.8272 13.7066C71.9188 13.8531 71.9631 14.0243 71.9543 14.1969C71.9543 14.7764 71.5201 15.059 70.6259 15.059C70.2429 15.0499 69.8637 14.9805 69.5022 14.8535C69.0909 14.7191 68.7028 14.5223 68.3513 14.27L68.2657 14.2089V16.1885L68.2969 16.2032C68.6465 16.3558 69.012 16.4687 69.3868 16.5397C69.7693 16.6232 70.1592 16.668 70.5506 16.6735C71.4486 16.7204 72.3358 16.4592 73.0651 15.9331C73.3647 15.7032 73.6057 15.4056 73.7684 15.0647C73.9311 14.7239 74.0109 14.3494 74.0012 13.9718C74.0159 13.433 73.8372 12.9067 73.4975 12.4883C73.0217 11.9943 72.4351 11.6207 71.7862 11.3985C71.3493 11.2522 70.9379 11.0383 70.5671 10.7646C70.4826 10.6767 70.4171 10.5722 70.3747 10.4578C70.3324 10.3433 70.3141 10.2214 70.321 10.0996C70.3193 9.97942 70.3467 9.86065 70.4011 9.75348C70.4555 9.64632 70.5351 9.55398 70.6331 9.48444C70.8892 9.30724 71.1971 9.22036 71.5081 9.2375C71.8613 9.23918 72.2123 9.2931 72.5498 9.39752C72.8725 9.4916 73.1792 9.63375 73.4596 9.8192L73.5434 9.8767V8.00144L73.5113 7.98762C73.2135 7.86898 72.9039 7.78261 72.5877 7.72998C72.254 7.66459 71.915 7.62953 71.5749 7.62523L71.5772 7.623ZM62.9083 14.9917C62.5802 15.0088 62.2525 14.9516 61.9496 14.8243C61.6467 14.697 61.3765 14.503 61.1591 14.2566C60.7089 13.6627 60.4861 12.9273 60.5311 12.1834C60.4832 11.4214 60.7058 10.6669 61.1596 10.0528C61.3723 9.80455 61.639 9.60824 61.9392 9.47883C62.2394 9.34943 62.5652 9.29036 62.8918 9.30614C63.2084 9.29093 63.5244 9.34714 63.8164 9.47059C64.1083 9.59405 64.3688 9.78159 64.5785 10.0193C65.0289 10.628 65.2473 11.3773 65.1945 12.1326C65.2465 12.8906 65.0424 13.6441 64.615 14.2722C64.4066 14.5171 64.1437 14.7099 63.8474 14.835C63.5511 14.9602 63.2296 15.0143 62.9087 14.993L62.9083 14.9917ZM63.0005 7.62389C62.3854 7.59001 61.7698 7.68257 61.1918 7.89585C60.6138 8.10913 60.0857 8.43862 59.64 8.86396C59.223 9.31921 58.9008 9.85297 58.6923 10.4341C58.4837 11.0152 58.393 11.632 58.4254 12.2485C58.3958 12.8391 58.4856 13.4297 58.6893 13.9848C58.893 14.54 59.2065 15.0484 59.6111 15.4798C60.0324 15.8844 60.5318 16.199 61.0788 16.4042C61.6258 16.6094 62.2088 16.7011 62.7924 16.6735C63.3985 16.7032 64.0043 16.6069 64.5713 16.3905C65.1383 16.1742 65.6542 15.8425 66.0864 15.4165C66.4999 14.9656 66.8201 14.4374 67.0285 13.8623C67.2369 13.2871 67.3294 12.6764 67.3007 12.0653C67.3654 10.8728 66.9558 9.70303 66.1613 8.81136C65.7454 8.40549 65.2496 8.09048 64.7055 7.88629C64.1614 7.68211 63.5808 7.59321 63.0005 7.62523V7.62389ZM55.3047 9.32843V7.83295H53.2739V16.4666H55.3047V12.0497C55.2756 11.4003 55.4529 10.7584 55.8111 10.2159C55.9547 9.99961 56.1503 9.82277 56.3799 9.7016C56.6096 9.58043 56.8659 9.5188 57.1256 9.52233C57.3321 9.52547 57.5374 9.55544 57.7362 9.61148C57.9036 9.64867 58.0636 9.71344 58.2096 9.80315L58.2952 9.86511V7.81824L58.2622 7.80397C58.0074 7.71291 57.7374 7.67189 57.467 7.68317C56.9707 7.67829 56.489 7.85092 56.1088 8.16993C55.7529 8.48252 55.4837 8.88172 55.3274 9.32888L55.3047 9.32843ZM49.637 7.62478C48.7765 7.60745 47.9261 7.81192 47.1676 8.21852C46.47 8.60236 45.9029 9.18562 45.5388 9.89364C45.155 10.6635 44.9631 11.5147 44.9794 12.3747C44.9693 13.1502 45.1564 13.9156 45.5232 14.599C45.8713 15.2467 46.3989 15.7802 47.0427 16.1355C47.7245 16.5024 48.4889 16.6883 49.263 16.6753C50.1164 16.7026 50.962 16.5048 51.7146 16.1016L51.7414 16.0864V14.2254L51.6558 14.2878C51.3519 14.5083 51.0171 14.6826 50.6622 14.8053C50.3505 14.9217 50.0217 14.9854 49.6892 14.9939C49.338 15.011 48.9872 14.9538 48.6596 14.8262C48.332 14.6985 48.035 14.5032 47.788 14.2531C47.2958 13.6861 47.0443 12.9495 47.0869 12.1999C47.0495 11.4294 47.3115 10.6743 47.8179 10.0924C48.0608 9.83289 48.3564 9.62841 48.685 9.49277C49.0135 9.35714 49.3674 9.2935 49.7226 9.30614C50.4225 9.31713 51.1002 9.55296 51.6558 9.97878L51.7409 10.0407V8.07944L51.7133 8.06384C51.4176 7.91188 51.1009 7.80477 50.7737 7.74602C50.4003 7.66697 50.0199 7.62619 49.6383 7.62434L49.637 7.62478ZM43.5815 7.8325H41.5507V16.4666H43.5815V7.8325ZM42.587 4.15463C42.2653 4.14952 41.9544 4.27139 41.7218 4.49385C41.6048 4.60122 41.512 4.73227 41.4495 4.8783C41.387 5.02432 41.3563 5.18197 41.3595 5.34077C41.3559 5.49665 41.3859 5.65148 41.4475 5.79476C41.509 5.93803 41.6006 6.06641 41.716 6.1712C41.9517 6.39031 42.2635 6.50896 42.5853 6.50194C42.9079 6.50837 43.2205 6.39005 43.458 6.17164C43.575 6.06761 43.6681 5.93947 43.7308 5.79603C43.7935 5.6526 43.8244 5.49728 43.8213 5.34077C43.823 5.18439 43.7924 5.02934 43.7316 4.88525C43.6708 4.74117 43.581 4.61112 43.4678 4.50321C43.3517 4.38865 43.2136 4.29873 43.0619 4.23883C42.9102 4.17893 42.7479 4.15029 42.5848 4.15463H42.587ZM37.5176 7.19553V16.4671H39.5903V4.41941H36.7219L33.0757 13.3678L29.5373 4.41941H26.5508V16.4662H28.4987V7.19463H28.5656L32.3018 16.4662H33.7728L37.4511 7.19463L37.5176 7.19553Z" fill="#718087"/>
<path d="M9.97611 9.94703H0.422394V0.393311H9.97611V9.94703Z" fill="#718087"/>
<path d="M20.5247 9.94703H10.971V0.393311H20.5247V9.94703Z" fill="#718087"/>
<path d="M9.97611 20.4992H0.422394V10.9454H9.97611V20.4992Z" fill="#718087"/>
<path d="M20.5247 20.4992H10.971V10.9454H20.5247V20.4992Z" fill="#718087"/>
</svg>
