<svg width="76" height="17" viewBox="0 0 76 17" fill="none" xmlns="http://www.w3.org/2000/svg">
<path d="M12.776 0.446289H15.6604V9.79863C15.6604 14.7192 12.5848 16.4463 8.12271 16.4463C3.67659 16.4463 0.600952 14.7192 0.600952 9.79863V0.821034C0.600952 0.560342 0.72844 0.446289 0.983415 0.446289H3.86782V9.65199C3.86782 12.6011 5.14269 13.8231 8.12271 13.8231C11.1187 13.8231 12.3935 12.6011 12.3935 9.65199V0.821034C12.3935 0.560342 12.521 0.446289 12.776 0.446289ZM45.4287 3.00433V6.94731H52.7274C52.8549 6.94731 52.9027 7.01248 52.8549 7.14283L52.0581 9.16319C51.9784 9.34242 51.8668 9.42389 51.6278 9.42389H47.341C45.9387 9.42389 45.4287 9.8638 45.4287 10.8251V13.6113H55.309C55.4365 13.6113 55.4843 13.6764 55.4365 13.8068L54.6078 15.9086C54.5281 16.0878 54.4166 16.1693 54.1776 16.1693H43.3571C42.5284 16.1693 42.2097 15.876 42.2097 15.2406V1.53794C42.2097 0.772155 42.624 0.446289 43.7077 0.446289H55.309C55.4365 0.446289 55.4843 0.511462 55.4365 0.625515L54.6078 2.74364C54.5281 2.92287 54.4166 3.00433 54.1776 3.00433H45.4287ZM36.2656 11.819C36.2656 14.9636 34.0983 16.1693 31.0545 16.1693H22.9909C22.1463 16.1693 21.8436 15.876 21.8436 15.2406V1.53794C21.8436 0.772155 22.2419 0.446289 23.3415 0.446289H29.8912C32.7597 0.446289 35.5325 0.951381 35.5325 4.43814C35.5325 5.93712 35.0066 7.208 33.7477 7.87602C35.4847 8.34853 36.2656 9.94527 36.2656 11.819ZM25.0148 6.99619H30.1302C31.8194 6.99619 32.2975 6.32816 32.2975 4.95953C32.2975 3.59089 31.8194 2.93916 30.1302 2.93916H25.0148V6.99619ZM33.0306 11.5257C33.0306 10.0756 32.5366 9.35871 30.7199 9.35871H26.9431C25.5407 9.35871 25.0148 9.79863 25.0148 10.7599V13.6764H30.7199C32.5366 13.6764 33.0306 12.9595 33.0306 11.5257ZM75.4202 16.1693H72.4879C72.2489 16.1693 72.1533 16.0715 72.0577 15.9086L68.9502 10.1734H66.0976C64.6953 10.1734 64.1694 10.6133 64.1694 11.5746V16.1693H61.3647C61.1097 16.1693 60.9822 16.039 60.9822 15.7946V1.53794C60.9822 0.772155 61.3965 0.446289 62.4802 0.446289H69.0617C72.9023 0.446289 75.213 1.47277 75.213 5.28539C75.213 8.23448 73.8266 9.3913 72.1055 9.84751L75.5636 15.8923C75.6273 15.9901 75.6273 16.1693 75.4202 16.1693ZM71.978 5.35057C71.978 3.75382 71.5477 2.97175 69.5398 2.97175H64.1694V7.72939H69.5398C71.5477 7.72939 71.978 6.9636 71.978 5.35057Z" fill="#718087"/>
</svg>
